<svg xmlns="http://www.w3.org/2000/svg" width="600" height="200" class="svg-chart">
  <line x1="70" y1="170.0" x2="570" y2="170.0" stroke="#eee"/><text x="66" y="173.0" text-anchor="end" fill="#666">0.0</text>
  <line x1="70" y1="130.0" x2="570" y2="130.0" stroke="#eee"/><text x="66" y="133.0" text-anchor="end" fill="#666">55.0</text>
  <line x1="70" y1="90.0" x2="570" y2="90.0" stroke="#eee"/><text x="66" y="93.0" text-anchor="end" fill="#666">110.0</text>
  <line x1="70" y1="50.0" x2="570" y2="50.0" stroke="#eee"/><text x="66" y="53.0" text-anchor="end" fill="#666">165.0</text>
  <line x1="70" y1="10.0" x2="570" y2="10.0" stroke="#eee"/><text x="66" y="13.0" text-anchor="end" fill="#666">220.0</text>
  <text x="70.0" y="196" text-anchor="middle" fill="#666">22:13</text>
  <text x="195.0" y="196" text-anchor="middle" fill="#666">22:25</text>
  <text x="320.0" y="196" text-anchor="middle" fill="#666">22:37</text>
  <text x="445.0" y="196" text-anchor="middle" fill="#666">22:50</text>
  <text x="570.0" y="196" text-anchor="middle" fill="#666">23:02</text>
  <path d="M70.0,97.3L80.2,74.5L90.4,54.0L100.6,37.9L110.8,27.7L121.0,24.5L131.2,28.7L141.4,39.7L151.6,56.5L161.8,77.4L172.0,100.3L182.2,122.9L192.4,142.9L202.7,158.3L212.9,167.6L223.1,169.9L233.3,164.8L243.5,152.9L253.7,135.5L263.9,114.2L274.1,91.2L284.3,68.9L294.5,49.3L304.7,34.6L314.9,26.2L325.1,24.9L335.3,30.9L345.5,43.6L355.7,61.6L365.9,83.3L376.1,106.3L386.3,128.4L396.5,147.4L406.7,161.4L416.9,168.9L427.1,169.2L437.3,162.3L447.6,148.9L457.8,130.2L468.0,108.3L478.2,85.2L488.4,63.4L498.6,45.0L508.8,31.8L519.0,25.2L529.2,25.8L539.4,33.6L549.6,47.8L559.8,67.0L570.0,89.2L570.0,170L70.0,170Z" fill="rgba(70,130,180,0.15)"/>
  <path d="M70.0,97.3L80.2,74.5L90.4,54.0L100.6,37.9L110.8,27.7L121.0,24.5L131.2,28.7L141.4,39.7L151.6,56.5L161.8,77.4L172.0,100.3L182.2,122.9L192.4,142.9L202.7,158.3L212.9,167.6L223.1,169.9L233.3,164.8L243.5,152.9L253.7,135.5L263.9,114.2L274.1,91.2L284.3,68.9L294.5,49.3L304.7,34.6L314.9,26.2L325.1,24.9L335.3,30.9L345.5,43.6L355.7,61.6L365.9,83.3L376.1,106.3L386.3,128.4L396.5,147.4L406.7,161.4L416.9,168.9L427.1,169.2L437.3,162.3L447.6,148.9L457.8,130.2L468.0,108.3L478.2,85.2L488.4,63.4L498.6,45.0L508.8,31.8L519.0,25.2L529.2,25.8L539.4,33.6L549.6,47.8L559.8,67.0L570.0,89.2" fill="none" stroke="#369" stroke-width="1.5"/>
</svg>
